<svg version="1.1" id="Layer_1" xmlns="http://www.w3.org/2000/svg" xmlns:xlink="http://www.w3.org/1999/xlink" x="0px" y="0px"
	 width="100%" viewBox="0 0 512 512" enable-background="new 0 0 512 512" xml:space="preserve">
<path fill="#000000" opacity="1.000000" stroke="none" 
	d="
M1.000000,178.000000 
	C1.000000,118.666664 1.000000,59.833332 1.000000,1.000000 
	C171.666672,1.000000 342.333344,1.000000 513.000000,1.000000 
	C513.000000,171.666672 513.000000,342.333344 513.000000,513.000000 
	C342.333344,513.000000 171.666672,513.000000 1.000000,513.000000 
	C1.000000,401.500000 1.000000,290.000000 1.000000,178.000000 
M31.015825,193.937027 
	C31.015825,287.552582 31.015825,381.168152 31.015825,474.834320 
	C34.713879,474.834320 37.851345,474.834320 41.916992,474.983368 
	C92.838036,474.983368 143.759079,474.983368 195.000717,474.983368 
	C195.000717,472.681976 195.000732,470.878143 195.000732,469.074310 
	C195.000732,415.426575 194.998505,361.778839 195.003311,308.131104 
	C195.003983,300.638550 196.609894,299.005463 203.994431,299.003937 
	C239.148697,298.996704 274.302948,298.998871 309.457214,299.002075 
	C317.537170,299.002808 318.997650,300.470032 318.998016,308.587463 
	C319.000519,362.235199 318.999329,415.882935 318.999329,469.530670 
	C318.999329,471.289001 318.999329,473.047333 318.999329,474.675537 
	C374.030914,474.675537 428.416870,474.675537 483.000671,474.675537 
	C483.000671,473.203461 483.000671,472.051727 483.000671,470.900024 
	C483.000641,379.432312 483.001221,287.964569 482.993744,196.496841 
	C482.993652,195.334610 482.889771,194.172363 482.980377,192.099731 
	C482.980377,189.162827 482.980377,186.225922 482.980377,183.000275 
	C480.978149,183.000275 479.507996,183.000259 478.037842,183.000259 
	C333.850098,183.000259 189.662338,182.999756 45.474583,183.007111 
	C43.979973,183.007187 42.485367,183.110596 40.083065,183.017014 
	C37.192604,183.017014 34.302139,183.017014 31.165676,183.017014 
	C31.165676,186.596939 31.165676,189.804413 31.015825,193.937027 
M33.903912,498.967072 
	C188.835083,498.967072 343.766266,498.967072 498.835999,498.967072 
	C498.835999,496.593018 498.835999,494.781830 498.971985,492.093109 
	C498.971985,490.501038 498.971985,488.908997 498.971985,487.240936 
	C337.421051,487.240936 176.445694,487.240936 15.295717,487.240936 
	C15.295717,491.203857 15.295717,494.922180 15.295717,498.835968 
	C21.382421,498.835968 27.176563,498.835968 33.903912,498.967072 
M138.983475,104.068512 
	C138.983475,101.141731 138.983475,98.214951 138.983475,94.997177 
	C127.747429,94.997177 117.122551,95.213837 106.510834,94.933151 
	C96.876068,94.678307 90.473503,98.831161 86.391861,107.462112 
	C81.637070,117.516502 76.360886,127.324020 71.587814,137.370209 
	C69.599808,141.554489 66.798157,143.187698 62.202984,143.071335 
	C52.563240,142.827271 42.912037,142.916672 33.267303,143.025421 
	C25.349703,143.114700 19.116436,146.719131 16.594124,154.164200 
	C14.861488,159.278397 15.135373,165.072388 14.481072,170.838394 
	C21.732748,170.838394 27.854115,170.838394 34.907734,170.968658 
	C69.488441,170.968658 104.069153,170.968658 138.843964,170.968658 
	C138.843964,148.555832 138.843964,126.765137 138.983475,104.068512 
M425.877838,104.285606 
	C423.133911,99.320381 418.875244,95.664558 413.391663,95.435539 
	C400.715698,94.906136 388.002563,95.267334 375.161163,95.267334 
	C375.161163,98.730423 375.161163,101.851891 375.031616,105.905975 
	C375.031616,127.474945 375.031616,149.043915 375.031616,170.686035 
	C416.620361,170.686035 457.621918,170.686035 498.999451,170.686035 
	C498.999451,167.577377 499.025635,164.778473 498.994904,161.980179 
	C498.868835,150.497406 491.379700,143.071121 479.794098,143.010132 
	C470.475952,142.961075 461.152863,142.828690 451.840820,143.072311 
	C447.246124,143.192535 444.469452,141.539551 442.445099,137.367310 
	C437.158630,126.471748 431.525238,115.744469 425.877838,104.285606 
M265.689728,343.000946 
	C261.759247,342.579437 263.044495,345.554321 263.042145,347.356659 
	C262.988037,388.836273 263.000549,430.315979 263.000671,471.795685 
	C263.000671,472.742889 263.000671,473.690063 263.000671,474.757202 
	C277.862152,474.757202 292.258179,474.757202 306.762329,474.757202 
	C306.762329,430.795197 306.762329,387.076019 306.762329,343.000305 
	C293.238770,343.000305 279.950073,343.000305 265.689728,343.000946 
M207.000275,464.477539 
	C207.000275,467.913605 207.000275,471.349701 207.000275,474.695557 
	C221.988831,474.695557 236.385086,474.695557 250.703857,474.695557 
	C250.703857,430.673401 250.703857,386.956055 250.703857,343.305176 
	C236.009628,343.305176 221.613358,343.305176 207.000275,343.305176 
	C207.000275,383.567261 207.000275,423.524780 207.000275,464.477539 
M362.999969,105.500000 
	C362.999969,86.073761 362.999969,66.647522 362.999969,47.378250 
	C358.598145,47.378250 354.870697,47.378250 351.000031,47.378250 
	C351.000031,81.915398 351.006287,116.074654 350.994904,150.233917 
	C350.992554,157.283203 349.253418,158.995056 342.114227,158.995972 
	C285.448486,159.003357 228.782745,159.002518 172.117004,158.997177 
	C164.657516,158.996475 163.005020,157.360275 163.003250,149.968704 
	C162.995499,117.469238 162.999893,84.969765 162.999893,52.470299 
	C162.999893,50.712734 162.999893,48.955173 162.999893,47.389236 
	C158.576340,47.389236 154.848404,47.389236 151.253052,47.389236 
	C151.253052,88.719337 151.253052,129.659943 151.253052,170.705688 
	C221.898270,170.705688 292.290161,170.705688 362.999969,170.705688 
	C362.999969,149.108612 362.999969,127.804306 362.999969,105.500000 
M236.347321,23.047543 
	C224.752319,16.890297 212.179688,15.561814 199.187836,15.116999 
	C199.187836,51.281914 199.187836,87.008774 199.187836,122.971611 
	C217.525620,123.927025 235.363937,126.186508 251.003494,138.338867 
	C251.003494,135.923843 251.003494,134.330582 251.003494,132.737335 
	C251.003510,103.604263 250.546921,74.459877 251.267899,45.344658 
	C251.499207,36.003765 248.016327,30.317841 240.776245,25.814621 
	C239.507431,25.025440 238.257996,24.205137 236.347321,23.047543 
M262.996460,65.500000 
	C262.996460,89.529869 262.996460,113.559731 262.996460,138.340881 
	C278.789948,126.136673 296.680389,123.968422 314.709412,122.937141 
	C314.709412,86.748451 314.709412,51.015659 314.709412,14.970009 
	C310.103760,15.336673 305.795837,15.532674 301.526215,16.046820 
	C288.182068,17.653708 275.794830,21.656746 266.346588,31.793190 
	C264.543854,33.727230 263.275055,36.868797 263.145599,39.520897 
	C262.739960,47.829891 262.996460,56.171204 262.996460,65.500000 
M259.500000,330.999695 
	C275.235199,330.999695 290.970398,330.999695 306.579376,330.999695 
	C306.579376,323.909424 306.579376,317.533020 306.579376,311.265289 
	C273.265564,311.265289 240.372696,311.265289 207.331238,311.265289 
	C207.331238,317.907135 207.331238,324.281067 207.331238,330.999695 
	C224.606491,330.999695 241.553238,330.999695 259.500000,330.999695 
M339.001740,130.498184 
	C339.001740,97.407135 339.001740,64.316086 339.001740,31.281868 
	C334.696167,31.281868 330.955902,31.281868 326.998260,31.281868 
	C326.998260,33.206944 326.998260,34.850254 326.998260,36.493568 
	C326.998260,66.318672 327.002441,96.143776 326.995331,125.968880 
	C326.993561,133.365982 325.372284,134.484650 317.918182,135.140564 
	C307.681305,136.041367 297.408722,137.191986 287.353638,139.232101 
	C282.167755,140.284286 277.419037,143.491043 272.472778,145.724274 
	C272.658051,146.054031 272.843292,146.383774 273.028564,146.713531 
	C294.946869,146.713531 316.865173,146.713531 339.001740,146.713531 
	C339.001740,141.450287 339.001740,136.473495 339.001740,130.498184 
M198.500031,147.001724 
	C212.702240,147.001724 226.904449,147.001724 241.106674,147.001724 
	C241.223984,146.527344 241.341293,146.052948 241.458603,145.578568 
	C236.530869,143.392792 231.793518,140.257950 226.634903,139.223114 
	C216.574829,137.205063 206.307281,136.040680 196.071350,135.140030 
	C188.622650,134.484634 187.006256,133.366333 187.004562,125.961548 
	C186.997757,96.139977 187.001740,66.318413 187.001724,36.496845 
	C187.001724,34.731503 187.001724,32.966164 187.001724,31.296392 
	C182.673172,31.296392 178.933990,31.296392 175.287506,31.296392 
	C175.287506,69.988968 175.287506,108.382713 175.287506,147.001724 
	C182.883484,147.001724 190.191772,147.001724 198.500031,147.001724 
z"/>
<path fill="#FEDF57" opacity="1.000000" stroke="none" 
	d="
M482.834290,193.010132 
	C482.889771,194.172363 482.993652,195.334610 482.993744,196.496841 
	C483.001221,287.964569 483.000641,379.432312 483.000671,470.900024 
	C483.000671,472.051727 483.000671,473.203461 483.000671,474.675537 
	C428.416870,474.675537 374.030914,474.675537 318.999329,474.675537 
	C318.999329,473.047333 318.999329,471.289001 318.999329,469.530670 
	C318.999329,415.882935 319.000519,362.235199 318.998016,308.587463 
	C318.997650,300.470032 317.537170,299.002808 309.457214,299.002075 
	C274.302948,298.998871 239.148697,298.996704 203.994431,299.003937 
	C196.609894,299.005463 195.003983,300.638550 195.003311,308.131104 
	C194.998505,361.778839 195.000732,415.426575 195.000732,469.074310 
	C195.000732,470.878143 195.000717,472.681976 195.000717,474.983368 
	C143.759079,474.983368 92.838036,474.983368 41.456501,474.450806 
	C40.997803,380.278351 40.999592,286.638428 41.469955,192.998840 
	C188.903778,193.002823 335.869019,193.006485 482.834290,193.010132 
M119.500000,299.000732 
	C99.501694,299.000763 79.503387,298.989471 59.505093,299.007141 
	C52.782310,299.013092 51.007984,300.814087 51.006062,307.624786 
	C50.995247,345.954865 50.993580,384.284943 51.007946,422.615021 
	C51.010372,429.088806 52.870361,430.987396 59.249462,430.990570 
	C95.079742,431.008392 130.910034,431.008331 166.740326,430.990601 
	C173.119827,430.987457 174.988968,429.086456 174.991562,422.621246 
	C175.006897,384.291168 175.004852,345.961090 174.993851,307.631012 
	C174.991898,300.825256 173.207642,299.015839 166.496078,299.007111 
	C151.164078,298.987244 135.832031,299.000763 119.500000,299.000732 
M339.000732,408.498962 
	C339.000763,413.165222 338.983856,417.831604 339.004883,422.497742 
	C339.035126,429.207977 340.825653,430.991699 347.632172,430.993896 
	C383.129181,431.005341 418.626221,431.003937 454.123230,430.995270 
	C461.262482,430.993530 462.992645,429.290802 462.994507,422.238403 
	C463.004547,384.074951 463.004395,345.911469 462.994598,307.748016 
	C462.992798,300.703308 461.263428,299.006165 454.113129,299.004517 
	C418.782776,298.996277 383.452393,298.997437 348.122040,299.003387 
	C340.636017,299.004669 339.005554,300.612030 339.003906,308.007751 
	C338.996613,341.171631 339.000732,374.335510 339.000732,408.498962 
M204.612488,247.127243 
	C202.532410,244.379593 200.452332,241.631958 198.196594,238.652267 
	C198.602966,238.043640 199.188354,237.254639 199.683304,236.412521 
	C207.502563,223.108383 200.670914,206.702621 185.572601,203.669312 
	C179.954865,202.540680 173.959518,202.909988 168.164871,203.188751 
	C164.772980,203.351929 163.015732,205.991348 163.013290,209.464218 
	C162.998520,230.457474 162.979782,251.450775 163.026108,272.443909 
	C163.035416,276.663025 165.363510,278.901367 169.569550,278.976776 
	C174.233246,279.060425 178.899826,279.035400 183.564651,278.996216 
	C201.117493,278.848663 211.081543,264.298187 204.612488,247.127243 
M218.997025,229.500061 
	C218.997055,243.326096 218.978592,257.152161 219.006577,270.978149 
	C219.017197,276.221466 221.214127,279.034088 225.097916,278.966248 
	C228.975296,278.898560 230.976395,276.165649 230.995743,270.778351 
	C231.023712,262.992462 231.002899,255.206421 231.002899,247.003204 
	C234.035751,247.003204 236.655792,246.979507 239.275269,247.007660 
	C247.168182,247.092499 250.907074,250.785507 250.988861,258.621460 
	C251.039276,263.451630 250.883423,268.287628 251.066818,273.111603 
	C251.198654,276.580292 253.283112,278.736786 256.737793,278.904236 
	C260.220184,279.072968 262.892181,277.010559 262.824249,273.640991 
	C262.597382,262.393005 265.916290,250.371368 256.211792,241.120209 
	C256.866119,240.233673 257.233398,239.696487 257.640076,239.190994 
	C263.521606,231.881088 264.799896,223.826981 260.688599,215.398392 
	C256.585602,206.986832 249.427109,203.035904 240.100555,203.001144 
	C235.436432,202.983749 230.770706,202.924820 226.108368,203.018265 
	C221.223007,203.116196 219.104492,205.177002 219.023300,210.010361 
	C218.919769,216.172028 218.997452,222.336761 218.997025,229.500061 
M330.997070,259.494720 
	C330.997101,263.326080 330.971100,267.157623 331.003510,270.988708 
	C331.047821,276.227234 333.222656,279.041168 337.108582,278.966248 
	C340.983734,278.891541 342.976685,276.160797 342.995789,270.767609 
	C343.023407,262.982605 343.002869,255.197418 343.002869,247.003220 
	C346.038177,247.003220 348.662506,246.979172 351.286224,247.007736 
	C359.172913,247.093582 362.907928,250.790161 362.989044,258.632568 
	C363.039032,263.462799 362.881622,268.298920 363.068176,273.122711 
	C363.202332,276.591156 365.293060,278.743927 368.748901,278.904358 
	C372.231506,279.066010 374.892578,277.001495 374.826294,273.629608 
	C374.605103,262.379883 377.904816,250.361938 368.211395,241.113831 
	C368.871063,240.224243 369.240967,239.688492 369.647766,239.182358 
	C375.525299,231.869278 376.799225,223.814148 372.683624,215.387833 
	C368.576233,206.978348 361.414978,203.033600 352.088684,203.000519 
	C347.924225,202.985748 343.759644,202.983124 339.595215,203.000305 
	C332.800812,203.028351 331.011353,204.781357 331.003174,211.521225 
	C330.984161,227.179703 330.997101,242.838211 330.997070,259.494720 
M274.997070,244.500000 
	C274.997437,253.650574 275.006409,262.801147 274.994293,271.951721 
	C274.988831,276.060211 276.786896,278.910187 281.058258,278.872498 
	C285.342072,278.834778 287.057953,275.910980 287.005402,271.829498 
	C286.983978,270.166077 287.002869,268.502075 287.002899,266.838348 
	C287.003021,260.263275 287.002930,253.688202 287.002930,247.375458 
	C294.120453,247.375458 300.516632,247.375458 306.997864,247.375458 
	C306.997864,255.730591 307.037537,263.713776 306.981354,271.696320 
	C306.952728,275.764130 308.527130,278.544830 312.807617,278.923523 
	C316.554779,279.255035 318.968872,276.357513 318.983398,271.585632 
	C319.030945,255.946655 319.138855,240.305710 318.949677,224.668839 
	C318.801453,212.416641 308.897186,202.921188 296.813721,203.002655 
	C284.981049,203.082428 275.327271,212.547165 275.033264,224.534134 
	C274.878296,230.852600 275.000183,237.177841 274.997070,244.500000 
M421.744537,204.006393 
	C417.487396,211.533539 413.230286,219.060669 408.751343,226.979950 
	C405.466370,220.466187 402.428192,214.393143 399.344818,208.343124 
	C396.850555,203.448990 393.978607,201.974365 390.471741,203.704010 
	C386.810211,205.509964 386.156738,208.634705 388.561737,213.495224 
	C392.614532,221.685913 396.860260,229.784988 400.711212,238.068405 
	C401.472321,239.705597 401.472168,242.306534 400.707336,243.940948 
	C396.765350,252.365051 392.418884,260.598846 388.297882,268.940674 
	C386.114624,273.360107 386.873718,276.680298 390.441864,278.296356 
	C394.511475,280.139557 397.127106,278.161407 398.904633,274.613403 
	C409.247803,253.967667 419.655792,233.353149 429.757172,212.589569 
	C430.718597,210.613358 430.618103,206.953186 429.366089,205.402634 
	C428.164429,203.914368 424.823914,204.153107 421.744537,204.006393 
M98.665611,266.999207 
	C95.382736,267.639648 94.919640,265.980774 94.939751,263.102966 
	C95.061996,245.618515 95.022873,228.132736 94.985939,210.647507 
	C94.975594,205.750214 92.779472,203.053650 89.026276,203.034607 
	C85.265938,203.015503 83.023140,205.719772 83.014656,210.589890 
	C82.979286,230.906097 82.970787,251.222473 83.019424,271.538605 
	C83.032341,276.934601 85.143463,278.953644 90.660980,278.984985 
	C100.319221,279.039856 109.978210,278.963409 119.636459,279.017365 
	C123.689590,279.040009 126.509880,277.527039 126.920128,273.234406 
	C127.276482,269.505646 124.345490,267.064636 119.616539,267.016937 
	C112.956139,266.949768 106.294571,266.999542 98.665611,266.999207 
M151.000702,230.500031 
	C151.000702,224.167450 151.016006,217.834839 150.996109,211.502319 
	C150.978241,205.813568 148.888016,202.948624 144.873306,203.034592 
	C141.003174,203.117493 139.011353,205.847870 139.006470,211.250687 
	C138.988525,231.081604 138.988586,250.912582 139.006439,270.743500 
	C139.011292,276.146027 141.003799,278.879608 144.872147,278.963898 
	C148.887680,279.051422 150.987335,276.188171 150.995071,270.495300 
	C151.012741,257.496887 151.000687,244.498428 151.000702,230.500031 
z"/>
<path fill="#95E8FC" opacity="1.000000" stroke="none" 
	d="
M266.175537,343.000610 
	C279.950073,343.000305 293.238770,343.000305 306.762329,343.000305 
	C306.762329,387.076019 306.762329,430.795197 306.762329,474.757202 
	C292.258179,474.757202 277.862152,474.757202 263.000671,474.757202 
	C263.000671,473.690063 263.000671,472.742889 263.000671,471.795685 
	C263.000549,430.315979 262.988037,388.836273 263.042145,347.356659 
	C263.044495,345.554321 261.759247,342.579437 266.175537,343.000610 
z"/>
<path fill="#95E8FC" opacity="1.000000" stroke="none" 
	d="
M207.000275,463.979919 
	C207.000275,423.524780 207.000275,383.567261 207.000275,343.305176 
	C221.613358,343.305176 236.009628,343.305176 250.703857,343.305176 
	C250.703857,386.956055 250.703857,430.673401 250.703857,474.695557 
	C236.385086,474.695557 221.988831,474.695557 207.000275,474.695557 
	C207.000275,471.349701 207.000275,467.913605 207.000275,463.979919 
z"/>
<path fill="#697E91" opacity="1.000000" stroke="none" 
	d="
M426.030182,104.950089 
	C431.525238,115.744469 437.158630,126.471748 442.445099,137.367310 
	C444.469452,141.539551 447.246124,143.192535 451.840820,143.072311 
	C461.152863,142.828690 470.475952,142.961075 479.794098,143.010132 
	C491.379700,143.071121 498.868835,150.497406 498.994904,161.980179 
	C499.025635,164.778473 498.999451,167.577377 498.999451,170.686035 
	C457.621918,170.686035 416.620361,170.686035 375.031616,170.686035 
	C375.031616,149.043915 375.031616,127.474945 375.554077,105.448883 
	C390.050293,104.995316 404.024078,105.001656 417.997833,104.999931 
	C420.675293,104.999603 423.352722,104.967522 426.030182,104.950089 
z"/>
<path fill="#FF5273" opacity="1.000000" stroke="none" 
	d="
M362.999969,106.000000 
	C362.999969,127.804306 362.999969,149.108612 362.999969,170.705688 
	C292.290161,170.705688 221.898270,170.705688 151.253052,170.705688 
	C151.253052,129.659943 151.253052,88.719337 151.253052,47.389236 
	C154.848404,47.389236 158.576340,47.389236 162.999893,47.389236 
	C162.999893,48.955173 162.999893,50.712734 162.999893,52.470299 
	C162.999893,84.969765 162.995499,117.469238 163.003250,149.968704 
	C163.005020,157.360275 164.657516,158.996475 172.117004,158.997177 
	C228.782745,159.002518 285.448486,159.003357 342.114227,158.995972 
	C349.253418,158.995056 350.992554,157.283203 350.994904,150.233917 
	C351.006287,116.074654 351.000031,81.915398 351.000031,47.378250 
	C354.870697,47.378250 358.598145,47.378250 362.999969,47.378250 
	C362.999969,66.647522 362.999969,86.073761 362.999969,106.000000 
z"/>
<path fill="#F1F9FD" opacity="1.000000" stroke="none" 
	d="
M236.673462,23.223373 
	C238.257996,24.205137 239.507431,25.025440 240.776245,25.814621 
	C248.016327,30.317841 251.499207,36.003765 251.267899,45.344658 
	C250.546921,74.459877 251.003510,103.604263 251.003494,132.737335 
	C251.003494,134.330582 251.003494,135.923843 251.003494,138.338867 
	C235.363937,126.186508 217.525620,123.927025 199.187836,122.971611 
	C199.187836,87.008774 199.187836,51.281914 199.187836,15.116999 
	C212.179688,15.561814 224.752319,16.890297 236.673462,23.223373 
M215.316696,106.418144 
	C220.416931,107.757553 225.551971,108.979301 230.606125,110.474464 
	C234.486374,111.622360 237.288269,110.403046 238.617828,106.809166 
	C239.916351,103.299110 238.255768,100.412407 234.863541,99.284683 
	C229.708496,97.570915 224.401627,96.279106 219.105621,95.036652 
	C215.706726,94.239273 212.698776,95.153343 211.409241,98.727715 
	C210.230118,101.996086 211.506729,104.522911 215.316696,106.418144 
M224.361099,66.022568 
	C222.399033,65.658691 220.447083,65.222496 218.472748,64.946266 
	C214.585022,64.402306 211.752792,65.925339 211.135315,69.879745 
	C210.506241,73.908478 213.058182,75.935974 216.716461,76.857254 
	C221.380203,78.031769 226.059555,79.159744 230.676971,80.498253 
	C234.591370,81.632973 237.402466,80.335999 238.655548,76.676613 
	C239.876343,73.111580 238.080231,70.469688 234.684509,69.179771 
	C231.583344,68.001732 228.356781,67.153770 224.361099,66.022568 
M230.930542,50.576904 
	C235.069702,51.657253 237.954117,50.012287 238.814743,46.009480 
	C239.651688,42.116905 237.273773,39.826790 233.609543,38.838688 
	C228.834488,37.551033 224.104828,36.018597 219.260406,35.086407 
	C214.598129,34.189270 211.377090,36.285213 211.084793,39.996338 
	C210.744629,44.314976 213.429474,46.104610 217.261871,46.960121 
	C221.602814,47.929153 225.889343,49.141964 230.930542,50.576904 
z"/>
<path fill="#DFF2FD" opacity="1.000000" stroke="none" 
	d="
M262.996460,65.000000 
	C262.996460,56.171204 262.739960,47.829891 263.145599,39.520897 
	C263.275055,36.868797 264.543854,33.727230 266.346588,31.793190 
	C275.794830,21.656746 288.182068,17.653708 301.526215,16.046820 
	C305.795837,15.532674 310.103760,15.336673 314.709412,14.970009 
	C314.709412,51.015659 314.709412,86.748451 314.709412,122.937141 
	C296.680389,123.968422 278.789948,126.136673 262.996460,138.340881 
	C262.996460,113.559731 262.996460,89.529869 262.996460,65.000000 
M298.018555,94.907784 
	C291.727692,96.335632 285.364532,97.511734 279.174377,99.290138 
	C275.718231,100.283081 274.070953,103.295006 275.382416,106.824402 
	C276.729095,110.448517 279.564667,111.635155 283.463959,110.448891 
	C287.903076,109.098389 292.583862,108.437119 296.877686,106.756210 
	C299.193695,105.849564 302.184204,103.665482 302.548187,101.640350 
	C302.892792,99.722954 300.203156,97.260208 298.018555,94.907784 
M279.161957,80.658562 
	C285.241425,79.380608 291.331482,78.150551 297.396362,76.806854 
	C301.074158,75.992027 303.511078,73.781532 302.854492,69.818398 
	C302.208344,65.918190 299.336517,64.191963 295.531708,64.990013 
	C290.375183,66.071587 285.208282,67.278114 280.222717,68.956482 
	C273.828430,71.109108 273.210327,75.891235 279.161957,80.658562 
M275.017426,45.404057 
	C275.743378,49.259827 278.120331,51.530426 281.963989,50.775349 
	C287.610443,49.666119 293.228943,48.180527 298.640961,46.244724 
	C300.425812,45.606304 302.477600,43.186188 302.686981,41.381165 
	C302.897003,39.571060 301.452240,36.819202 299.869751,35.696152 
	C295.675507,32.719631 277.565857,38.473850 275.260895,43.158081 
	C275.052185,43.582222 275.091339,44.128323 275.017426,45.404057 
z"/>
<path fill="#FAD22A" opacity="1.000000" stroke="none" 
	d="
M482.907349,192.554932 
	C335.869019,193.006485 188.903778,193.002823 41.469261,192.999573 
	C41.000000,193.000000 41.001518,192.998581 41.001137,192.549133 
	C40.997425,189.121704 40.994095,186.143723 40.990761,183.165756 
	C42.485367,183.110596 43.979973,183.007187 45.474583,183.007111 
	C189.662338,182.999756 333.850098,183.000259 478.037842,183.000259 
	C479.507996,183.000259 480.978149,183.000275 482.980377,183.000275 
	C482.980377,186.225922 482.980377,189.162827 482.907349,192.554932 
z"/>
<path fill="#697E91" opacity="1.000000" stroke="none" 
	d="
M138.843964,104.974442 
	C138.843964,126.765137 138.843964,148.555832 138.843964,170.968658 
	C104.069153,170.968658 69.488441,170.968658 34.496029,170.551559 
	C38.071331,159.078705 46.612301,153.010071 58.202602,153.002426 
	C63.856121,152.998703 69.537430,152.656738 75.154510,153.109100 
	C79.772415,153.481018 81.967339,151.603851 83.821472,147.608475 
	C88.297142,137.964127 93.029320,128.423477 98.062782,119.058540 
	C101.603943,112.470093 106.517326,106.807846 114.539360,106.024384 
	C122.598206,105.237328 130.739059,105.289856 138.843964,104.974442 
z"/>
<path fill="#7D90A8" opacity="1.000000" stroke="none" 
	d="
M32.970703,498.835968 
	C27.176563,498.835968 21.382421,498.835968 15.295717,498.835968 
	C15.295717,494.922180 15.295717,491.203857 15.295717,487.240936 
	C176.445694,487.240936 337.421051,487.240936 498.971985,487.240936 
	C498.971985,488.908997 498.971985,490.501038 498.446533,492.541260 
	C343.079651,492.989410 188.238220,492.989410 32.970703,492.989410 
	C32.970703,495.542908 32.970703,497.189423 32.970703,498.835968 
z"/>
<path fill="#FFF081" opacity="1.000000" stroke="none" 
	d="
M41.000694,192.999252 
	C40.999592,286.638428 40.997803,380.278351 40.992409,474.376282 
	C37.851345,474.834320 34.713879,474.834320 31.015825,474.834320 
	C31.015825,381.168152 31.015825,287.552582 31.534195,193.470718 
	C35.035549,193.002457 38.018532,193.000519 41.001518,192.998581 
	C41.001518,192.998581 41.000000,193.000000 41.000694,192.999252 
z"/>
<path fill="#697E91" opacity="1.000000" stroke="none" 
	d="
M33.437309,498.901520 
	C32.970703,497.189423 32.970703,495.542908 32.970703,492.989410 
	C188.238220,492.989410 343.079651,492.989410 498.378540,492.980042 
	C498.835999,494.781830 498.835999,496.593018 498.835999,498.967072 
	C343.766266,498.967072 188.835083,498.967072 33.437309,498.901520 
z"/>
<path fill="#7C8FA7" opacity="1.000000" stroke="none" 
	d="
M138.913727,104.521477 
	C130.739059,105.289856 122.598206,105.237328 114.539360,106.024384 
	C106.517326,106.807846 101.603943,112.470093 98.062782,119.058540 
	C93.029320,128.423477 88.297142,137.964127 83.821472,147.608475 
	C81.967339,151.603851 79.772415,153.481018 75.154510,153.109100 
	C69.537430,152.656738 63.856121,152.998703 58.202602,153.002426 
	C46.612301,153.010071 38.071331,159.078705 34.029903,170.486420 
	C27.854115,170.838394 21.732748,170.838394 14.481072,170.838394 
	C15.135373,165.072388 14.861488,159.278397 16.594124,154.164200 
	C19.116436,146.719131 25.349703,143.114700 33.267303,143.025421 
	C42.912037,142.916672 52.563240,142.827271 62.202984,143.071335 
	C66.798157,143.187698 69.599808,141.554489 71.587814,137.370209 
	C76.360886,127.324020 81.637070,117.516502 86.391861,107.462112 
	C90.473503,98.831161 96.876068,94.678307 106.510834,94.933151 
	C117.122551,95.213837 127.747429,94.997177 138.983475,94.997177 
	C138.983475,98.214951 138.983475,101.141731 138.913727,104.521477 
z"/>
<path fill="#697E91" opacity="1.000000" stroke="none" 
	d="
M259.000000,330.999695 
	C241.553238,330.999695 224.606491,330.999695 207.331238,330.999695 
	C207.331238,324.281067 207.331238,317.907135 207.331238,311.265289 
	C240.372696,311.265289 273.265564,311.265289 306.579376,311.265289 
	C306.579376,317.533020 306.579376,323.909424 306.579376,330.999695 
	C290.970398,330.999695 275.235199,330.999695 259.000000,330.999695 
z"/>
<path fill="#F2FAFE" opacity="1.000000" stroke="none" 
	d="
M339.001740,130.997437 
	C339.001740,136.473495 339.001740,141.450287 339.001740,146.713531 
	C316.865173,146.713531 294.946869,146.713531 273.028564,146.713531 
	C272.843292,146.383774 272.658051,146.054031 272.472778,145.724274 
	C277.419037,143.491043 282.167755,140.284286 287.353638,139.232101 
	C297.408722,137.191986 307.681305,136.041367 317.918182,135.140564 
	C325.372284,134.484650 326.993561,133.365982 326.995331,125.968880 
	C327.002441,96.143776 326.998260,66.318672 326.998260,36.493568 
	C326.998260,34.850254 326.998260,33.206944 326.998260,31.281868 
	C330.955902,31.281868 334.696167,31.281868 339.001740,31.281868 
	C339.001740,64.316086 339.001740,97.407135 339.001740,130.997437 
z"/>
<path fill="#E0F3FE" opacity="1.000000" stroke="none" 
	d="
M198.000046,147.001724 
	C190.191772,147.001724 182.883484,147.001724 175.287506,147.001724 
	C175.287506,108.382713 175.287506,69.988968 175.287506,31.296392 
	C178.933990,31.296392 182.673172,31.296392 187.001724,31.296392 
	C187.001724,32.966164 187.001724,34.731503 187.001724,36.496845 
	C187.001740,66.318413 186.997757,96.139977 187.004562,125.961548 
	C187.006256,133.366333 188.622650,134.484634 196.071350,135.140030 
	C206.307281,136.040680 216.574829,137.205063 226.634903,139.223114 
	C231.793518,140.257950 236.530869,143.392792 241.458603,145.578568 
	C241.341293,146.052948 241.223984,146.527344 241.106674,147.001724 
	C226.904449,147.001724 212.702240,147.001724 198.000046,147.001724 
z"/>
<path fill="#7C8FA7" opacity="1.000000" stroke="none" 
	d="
M425.954010,104.617844 
	C423.352722,104.967522 420.675293,104.999603 417.997833,104.999931 
	C404.024078,105.001656 390.050293,104.995316 375.618835,104.982574 
	C375.161163,101.851891 375.161163,98.730423 375.161163,95.267334 
	C388.002563,95.267334 400.715698,94.906136 413.391663,95.435539 
	C418.875244,95.664558 423.133911,99.320381 425.954010,104.617844 
z"/>
<path fill="#FEDF57" opacity="1.000000" stroke="none" 
	d="
M41.001137,192.549133 
	C38.018532,193.000519 35.035549,193.002457 31.609119,193.008148 
	C31.165676,189.804413 31.165676,186.596939 31.165676,183.017014 
	C34.302139,183.017014 37.192604,183.017014 40.536915,183.091385 
	C40.994095,186.143723 40.997425,189.121704 41.001137,192.549133 
z"/>
<path fill="#000000" opacity="1.000000" stroke="none" 
	d="
M120.000000,299.000732 
	C135.832031,299.000763 151.164078,298.987244 166.496078,299.007111 
	C173.207642,299.015839 174.991898,300.825256 174.993851,307.631012 
	C175.004852,345.961090 175.006897,384.291168 174.991562,422.621246 
	C174.988968,429.086456 173.119827,430.987457 166.740326,430.990601 
	C130.910034,431.008331 95.079742,431.008392 59.249462,430.990570 
	C52.870361,430.987396 51.010372,429.088806 51.007946,422.615021 
	C50.993580,384.284943 50.995247,345.954865 51.006062,307.624786 
	C51.007984,300.814087 52.782310,299.013092 59.505093,299.007141 
	C79.503387,298.989471 99.501694,299.000763 120.000000,299.000732 
M145.498718,418.999878 
	C151.258621,418.999878 157.018539,418.999878 162.705063,418.999878 
	C162.705063,393.346344 162.705063,368.292999 162.705063,343.299622 
	C148.014908,343.299622 133.621536,343.299622 119.294907,343.299622 
	C119.294907,368.653564 119.294907,393.706909 119.294907,418.999878 
	C127.891403,418.999878 136.195389,418.999878 145.498718,418.999878 
M106.999832,386.500000 
	C106.999832,372.079865 106.999832,357.659760 106.999832,343.297058 
	C92.020111,343.297058 77.626747,343.297058 63.292274,343.297058 
	C63.292274,368.648376 63.292274,393.701630 63.292274,418.703094 
	C77.979546,418.703094 92.372917,418.703094 106.999832,418.703094 
	C106.999832,408.105103 106.999832,397.802551 106.999832,386.500000 
M136.500000,311.000122 
	C112.108810,311.000122 87.717621,311.000122 63.405396,311.000122 
	C63.405396,318.062439 63.405396,324.439423 63.405396,330.749023 
	C96.704643,330.749023 129.598190,330.749023 162.683167,330.749023 
	C162.683167,324.122314 162.683167,317.748535 162.683167,311.000122 
	C154.081284,311.000122 145.790649,311.000122 136.500000,311.000122 
z"/>
<path fill="#000000" opacity="1.000000" stroke="none" 
	d="
M339.000732,407.999176 
	C339.000732,374.335510 338.996613,341.171631 339.003906,308.007751 
	C339.005554,300.612030 340.636017,299.004669 348.122040,299.003387 
	C383.452393,298.997437 418.782776,298.996277 454.113129,299.004517 
	C461.263428,299.006165 462.992798,300.703308 462.994598,307.748016 
	C463.004395,345.911469 463.004547,384.074951 462.994507,422.238403 
	C462.992645,429.290802 461.262482,430.993530 454.123230,430.995270 
	C418.626221,431.003937 383.129181,431.005341 347.632172,430.993896 
	C340.825653,430.991699 339.035126,429.207977 339.004883,422.497742 
	C338.983856,417.831604 339.000763,413.165222 339.000732,407.999176 
M356.605286,343.000122 
	C354.833527,343.000122 353.061768,343.000122 351.264557,343.000122 
	C351.264557,368.588959 351.264557,393.643677 351.264557,418.729187 
	C365.924500,418.729187 380.318359,418.729187 394.731262,418.729187 
	C394.731262,393.402740 394.731262,368.347931 394.731262,343.000122 
	C382.170197,343.000122 369.875549,343.000122 356.605286,343.000122 
M450.999878,377.500000 
	C450.999878,366.077362 450.999878,354.654755 450.999878,343.299744 
	C436.014648,343.299744 421.621307,343.299744 407.294922,343.299744 
	C407.294922,368.653717 407.294922,393.707001 407.294922,418.700439 
	C421.984924,418.700439 436.378357,418.700439 450.999878,418.700439 
	C450.999878,405.101501 450.999878,391.800751 450.999878,377.500000 
M362.519196,330.999878 
	C391.903351,330.999878 421.287537,330.999878 450.594910,330.999878 
	C450.594910,323.938202 450.594910,317.561127 450.594910,311.251862 
	C417.295013,311.251862 384.400726,311.251862 351.317871,311.251862 
	C351.317871,317.879669 351.317871,324.253601 351.317871,330.999878 
	C354.929626,330.999878 358.228058,330.999878 362.519196,330.999878 
z"/>
<path fill="#020201" opacity="1.000000" stroke="none" 
	d="
M204.771088,247.475403 
	C211.081543,264.298187 201.117493,278.848663 183.564651,278.996216 
	C178.899826,279.035400 174.233246,279.060425 169.569550,278.976776 
	C165.363510,278.901367 163.035416,276.663025 163.026108,272.443909 
	C162.979782,251.450775 162.998520,230.457474 163.013290,209.464218 
	C163.015732,205.991348 164.772980,203.351929 168.164871,203.188751 
	C173.959518,202.909988 179.954865,202.540680 185.572601,203.669312 
	C200.670914,206.702621 207.502563,223.108383 199.683304,236.412521 
	C199.188354,237.254639 198.602966,238.043640 198.196594,238.652267 
	C200.452332,241.631958 202.532410,244.379593 204.771088,247.475403 
M177.643845,246.998642 
	C176.762848,247.799438 175.150940,248.571808 175.118500,249.405594 
	C174.894852,255.156433 175.000824,260.920105 175.000824,266.970947 
	C178.788559,266.970947 182.085968,267.136444 185.360657,266.934082 
	C190.985367,266.586548 195.048004,262.203094 194.968430,256.849518 
	C194.888672,251.483856 190.777908,247.360352 185.068253,247.033401 
	C182.916183,246.910156 180.751740,247.003204 177.643845,246.998642 
M190.969742,225.389511 
	C189.897644,216.774445 185.245758,213.855270 175.278351,215.555069 
	C175.278351,221.963516 175.278351,228.371964 175.278351,234.753616 
	C185.562195,235.453979 188.537033,233.790726 190.969742,225.389511 
z"/>
<path fill="#020201" opacity="1.000000" stroke="none" 
	d="
M218.997025,229.000122 
	C218.997452,222.336761 218.919769,216.172028 219.023300,210.010361 
	C219.104492,205.177002 221.223007,203.116196 226.108368,203.018265 
	C230.770706,202.924820 235.436432,202.983749 240.100555,203.001144 
	C249.427109,203.035904 256.585602,206.986832 260.688599,215.398392 
	C264.799896,223.826981 263.521606,231.881088 257.640076,239.190994 
	C257.233398,239.696487 256.866119,240.233673 256.211792,241.120209 
	C265.916290,250.371368 262.597382,262.393005 262.824249,273.640991 
	C262.892181,277.010559 260.220184,279.072968 256.737793,278.904236 
	C253.283112,278.736786 251.198654,276.580292 251.066818,273.111603 
	C250.883423,268.287628 251.039276,263.451630 250.988861,258.621460 
	C250.907074,250.785507 247.168182,247.092499 239.275269,247.007660 
	C236.655792,246.979507 234.035751,247.003204 231.002899,247.003204 
	C231.002899,255.206421 231.023712,262.992462 230.995743,270.778351 
	C230.976395,276.165649 228.975296,278.898560 225.097916,278.966248 
	C221.214127,279.034088 219.017197,276.221466 219.006577,270.978149 
	C218.978592,257.152161 218.997055,243.326096 218.997025,229.000122 
M241.884995,215.050980 
	C238.306732,215.050980 234.728470,215.050980 231.344055,215.050980 
	C231.344055,222.085480 231.344055,228.480774 231.344055,234.835770 
	C244.943817,235.717728 248.360657,234.528107 250.717865,227.006485 
	C252.292480,221.982056 249.006317,217.540314 241.884995,215.050980 
z"/>
<path fill="#020201" opacity="1.000000" stroke="none" 
	d="
M330.997070,258.995728 
	C330.997101,242.838211 330.984161,227.179703 331.003174,211.521225 
	C331.011353,204.781357 332.800812,203.028351 339.595215,203.000305 
	C343.759644,202.983124 347.924225,202.985748 352.088684,203.000519 
	C361.414978,203.033600 368.576233,206.978348 372.683624,215.387833 
	C376.799225,223.814148 375.525299,231.869278 369.647766,239.182358 
	C369.240967,239.688492 368.871063,240.224243 368.211395,241.113831 
	C377.904816,250.361938 374.605103,262.379883 374.826294,273.629608 
	C374.892578,277.001495 372.231506,279.066010 368.748901,278.904358 
	C365.293060,278.743927 363.202332,276.591156 363.068176,273.122711 
	C362.881622,268.298920 363.039032,263.462799 362.989044,258.632568 
	C362.907928,250.790161 359.172913,247.093582 351.286224,247.007736 
	C348.662506,246.979172 346.038177,247.003220 343.002869,247.003220 
	C343.002869,255.197418 343.023407,262.982605 342.995789,270.767609 
	C342.976685,276.160797 340.983734,278.891541 337.108582,278.966248 
	C333.222656,279.041168 331.047821,276.227234 331.003510,270.988708 
	C330.971100,267.157623 330.997101,263.326080 330.997070,258.995728 
M344.699249,215.007309 
	C344.134583,215.621811 343.092621,216.226273 343.079437,216.852386 
	C342.954803,222.779404 343.005280,228.710114 343.005280,234.949982 
	C346.908813,234.949982 350.376007,235.171066 353.804047,234.898880 
	C359.127747,234.476151 363.020874,230.051270 362.969513,224.901428 
	C362.918030,219.738510 358.976929,215.496490 353.614685,215.073090 
	C350.973297,214.864532 348.303802,215.012161 344.699249,215.007309 
z"/>
<path fill="#020201" opacity="1.000000" stroke="none" 
	d="
M274.997070,244.000015 
	C275.000183,237.177841 274.878296,230.852600 275.033264,224.534134 
	C275.327271,212.547165 284.981049,203.082428 296.813721,203.002655 
	C308.897186,202.921188 318.801453,212.416641 318.949677,224.668839 
	C319.138855,240.305710 319.030945,255.946655 318.983398,271.585632 
	C318.968872,276.357513 316.554779,279.255035 312.807617,278.923523 
	C308.527130,278.544830 306.952728,275.764130 306.981354,271.696320 
	C307.037537,263.713776 306.997864,255.730591 306.997864,247.375458 
	C300.516632,247.375458 294.120453,247.375458 287.002930,247.375458 
	C287.002930,253.688202 287.003021,260.263275 287.002899,266.838348 
	C287.002869,268.502075 286.983978,270.166077 287.005402,271.829498 
	C287.057953,275.910980 285.342072,278.834778 281.058258,278.872498 
	C276.786896,278.910187 274.988831,276.060211 274.994293,271.951721 
	C275.006409,262.801147 274.997437,253.650574 274.997070,244.000015 
M305.724487,220.161774 
	C303.234680,216.292648 299.723083,214.348816 295.145233,215.215790 
	C291.043701,215.992554 288.006226,218.632431 287.393555,222.724792 
	C286.798248,226.700989 287.264343,230.836090 287.264343,234.795898 
	C294.020813,234.795898 300.297180,234.795898 307.398407,234.795898 
	C306.927612,229.994232 306.482300,225.452560 305.724487,220.161774 
z"/>
<path fill="#020201" opacity="1.000000" stroke="none" 
	d="
M422.083923,203.819672 
	C424.823914,204.153107 428.164429,203.914368 429.366089,205.402634 
	C430.618103,206.953186 430.718597,210.613358 429.757172,212.589569 
	C419.655792,233.353149 409.247803,253.967667 398.904633,274.613403 
	C397.127106,278.161407 394.511475,280.139557 390.441864,278.296356 
	C386.873718,276.680298 386.114624,273.360107 388.297882,268.940674 
	C392.418884,260.598846 396.765350,252.365051 400.707336,243.940948 
	C401.472168,242.306534 401.472321,239.705597 400.711212,238.068405 
	C396.860260,229.784988 392.614532,221.685913 388.561737,213.495224 
	C386.156738,208.634705 386.810211,205.509964 390.471741,203.704010 
	C393.978607,201.974365 396.850555,203.448990 399.344818,208.343124 
	C402.428192,214.393143 405.466370,220.466187 408.751343,226.979950 
	C413.230286,219.060669 417.487396,211.533539 422.083923,203.819672 
z"/>
<path fill="#010100" opacity="1.000000" stroke="none" 
	d="
M99.149551,266.999268 
	C106.294571,266.999542 112.956139,266.949768 119.616539,267.016937 
	C124.345490,267.064636 127.276482,269.505646 126.920128,273.234406 
	C126.509880,277.527039 123.689590,279.040009 119.636459,279.017365 
	C109.978210,278.963409 100.319221,279.039856 90.660980,278.984985 
	C85.143463,278.953644 83.032341,276.934601 83.019424,271.538605 
	C82.970787,251.222473 82.979286,230.906097 83.014656,210.589890 
	C83.023140,205.719772 85.265938,203.015503 89.026276,203.034607 
	C92.779472,203.053650 94.975594,205.750214 94.985939,210.647507 
	C95.022873,228.132736 95.061996,245.618515 94.939751,263.102966 
	C94.919640,265.980774 95.382736,267.639648 99.149551,266.999268 
z"/>
<path fill="#010100" opacity="1.000000" stroke="none" 
	d="
M151.000702,231.000015 
	C151.000687,244.498428 151.012741,257.496887 150.995071,270.495300 
	C150.987335,276.188171 148.887680,279.051422 144.872147,278.963898 
	C141.003799,278.879608 139.011292,276.146027 139.006439,270.743500 
	C138.988586,250.912582 138.988525,231.081604 139.006470,211.250687 
	C139.011353,205.847870 141.003174,203.117493 144.873306,203.034592 
	C148.888016,202.948624 150.978241,205.813568 150.996109,211.502319 
	C151.016006,217.834839 151.000702,224.167450 151.000702,231.000015 
z"/>
<path fill="#060707" opacity="1.000000" stroke="none" 
	d="
M214.948547,106.272362 
	C211.506729,104.522911 210.230118,101.996086 211.409241,98.727715 
	C212.698776,95.153343 215.706726,94.239273 219.105621,95.036652 
	C224.401627,96.279106 229.708496,97.570915 234.863541,99.284683 
	C238.255768,100.412407 239.916351,103.299110 238.617828,106.809166 
	C237.288269,110.403046 234.486374,111.622360 230.606125,110.474464 
	C225.551971,108.979301 220.416931,107.757553 214.948547,106.272362 
z"/>
<path fill="#060707" opacity="1.000000" stroke="none" 
	d="
M224.773285,66.091454 
	C228.356781,67.153770 231.583344,68.001732 234.684509,69.179771 
	C238.080231,70.469688 239.876343,73.111580 238.655548,76.676613 
	C237.402466,80.335999 234.591370,81.632973 230.676971,80.498253 
	C226.059555,79.159744 221.380203,78.031769 216.716461,76.857254 
	C213.058182,75.935974 210.506241,73.908478 211.135315,69.879745 
	C211.752792,65.925339 214.585022,64.402306 218.472748,64.946266 
	C220.447083,65.222496 222.399033,65.658691 224.773285,66.091454 
z"/>
<path fill="#060707" opacity="1.000000" stroke="none" 
	d="
M230.565033,50.412842 
	C225.889343,49.141964 221.602814,47.929153 217.261871,46.960121 
	C213.429474,46.104610 210.744629,44.314976 211.084793,39.996338 
	C211.377090,36.285213 214.598129,34.189270 219.260406,35.086407 
	C224.104828,36.018597 228.834488,37.551033 233.609543,38.838688 
	C237.273773,39.826790 239.651688,42.116905 238.814743,46.009480 
	C237.954117,50.012287 235.069702,51.657253 230.565033,50.412842 
z"/>
<path fill="#060707" opacity="1.000000" stroke="none" 
	d="
M298.433258,94.972549 
	C300.203156,97.260208 302.892792,99.722954 302.548187,101.640350 
	C302.184204,103.665482 299.193695,105.849564 296.877686,106.756210 
	C292.583862,108.437119 287.903076,109.098389 283.463959,110.448891 
	C279.564667,111.635155 276.729095,110.448517 275.382416,106.824402 
	C274.070953,103.295006 275.718231,100.283081 279.174377,99.290138 
	C285.364532,97.511734 291.727692,96.335632 298.433258,94.972549 
z"/>
<path fill="#060707" opacity="1.000000" stroke="none" 
	d="
M278.811829,80.475060 
	C273.210327,75.891235 273.828430,71.109108 280.222717,68.956482 
	C285.208282,67.278114 290.375183,66.071587 295.531708,64.990013 
	C299.336517,64.191963 302.208344,65.918190 302.854492,69.818398 
	C303.511078,73.781532 301.074158,75.992027 297.396362,76.806854 
	C291.331482,78.150551 285.241425,79.380608 278.811829,80.475060 
z"/>
<path fill="#060707" opacity="1.000000" stroke="none" 
	d="
M275.016418,45.010921 
	C275.091339,44.128323 275.052185,43.582222 275.260895,43.158081 
	C277.565857,38.473850 295.675507,32.719631 299.869751,35.696152 
	C301.452240,36.819202 302.897003,39.571060 302.686981,41.381165 
	C302.477600,43.186188 300.425812,45.606304 298.640961,46.244724 
	C293.228943,48.180527 287.610443,49.666119 281.963989,50.775349 
	C278.120331,51.530426 275.743378,49.259827 275.016418,45.010921 
z"/>
<path fill="#95E8FC" opacity="1.000000" stroke="none" 
	d="
M144.999039,418.999878 
	C136.195389,418.999878 127.891403,418.999878 119.294907,418.999878 
	C119.294907,393.706909 119.294907,368.653564 119.294907,343.299622 
	C133.621536,343.299622 148.014908,343.299622 162.705063,343.299622 
	C162.705063,368.292999 162.705063,393.346344 162.705063,418.999878 
	C157.018539,418.999878 151.258621,418.999878 144.999039,418.999878 
z"/>
<path fill="#95E8FC" opacity="1.000000" stroke="none" 
	d="
M106.999832,387.000000 
	C106.999832,397.802551 106.999832,408.105103 106.999832,418.703094 
	C92.372917,418.703094 77.979546,418.703094 63.292274,418.703094 
	C63.292274,393.701630 63.292274,368.648376 63.292274,343.297058 
	C77.626747,343.297058 92.020111,343.297058 106.999832,343.297058 
	C106.999832,357.659760 106.999832,372.079865 106.999832,387.000000 
z"/>
<path fill="#697E91" opacity="1.000000" stroke="none" 
	d="
M137.000000,311.000122 
	C145.790649,311.000122 154.081284,311.000122 162.683167,311.000122 
	C162.683167,317.748535 162.683167,324.122314 162.683167,330.749023 
	C129.598190,330.749023 96.704643,330.749023 63.405396,330.749023 
	C63.405396,324.439423 63.405396,318.062439 63.405396,311.000122 
	C87.717621,311.000122 112.108810,311.000122 137.000000,311.000122 
z"/>
<path fill="#95E8FC" opacity="1.000000" stroke="none" 
	d="
M357.093079,343.000122 
	C369.875549,343.000122 382.170197,343.000122 394.731262,343.000122 
	C394.731262,368.347931 394.731262,393.402740 394.731262,418.729187 
	C380.318359,418.729187 365.924500,418.729187 351.264557,418.729187 
	C351.264557,393.643677 351.264557,368.588959 351.264557,343.000122 
	C353.061768,343.000122 354.833527,343.000122 357.093079,343.000122 
z"/>
<path fill="#95E8FC" opacity="1.000000" stroke="none" 
	d="
M450.999878,378.000000 
	C450.999878,391.800751 450.999878,405.101501 450.999878,418.700439 
	C436.378357,418.700439 421.984924,418.700439 407.294922,418.700439 
	C407.294922,393.707001 407.294922,368.653717 407.294922,343.299744 
	C421.621307,343.299744 436.014648,343.299744 450.999878,343.299744 
	C450.999878,354.654755 450.999878,366.077362 450.999878,378.000000 
z"/>
<path fill="#697E91" opacity="1.000000" stroke="none" 
	d="
M362.022827,330.999878 
	C358.228058,330.999878 354.929626,330.999878 351.317871,330.999878 
	C351.317871,324.253601 351.317871,317.879669 351.317871,311.251862 
	C384.400726,311.251862 417.295013,311.251862 450.594910,311.251862 
	C450.594910,317.561127 450.594910,323.938202 450.594910,330.999878 
	C421.287537,330.999878 391.903351,330.999878 362.022827,330.999878 
z"/>
<path fill="#FCDC56" opacity="1.000000" stroke="none" 
	d="
M178.118378,246.998169 
	C180.751740,247.003204 182.916183,246.910156 185.068253,247.033401 
	C190.777908,247.360352 194.888672,251.483856 194.968430,256.849518 
	C195.048004,262.203094 190.985367,266.586548 185.360657,266.934082 
	C182.085968,267.136444 178.788559,266.970947 175.000824,266.970947 
	C175.000824,260.920105 174.894852,255.156433 175.118500,249.405594 
	C175.150940,248.571808 176.762848,247.799438 178.118378,246.998169 
z"/>
<path fill="#FCDC56" opacity="1.000000" stroke="none" 
	d="
M190.947418,225.785492 
	C188.537033,233.790726 185.562195,235.453979 175.278351,234.753616 
	C175.278351,228.371964 175.278351,221.963516 175.285614,215.553497 
	C185.245758,213.855270 189.897644,216.774445 190.947418,225.785492 
z"/>
<path fill="#FCDC56" opacity="1.000000" stroke="none" 
	d="
M242.311157,215.094666 
	C249.006317,217.540314 252.292480,221.982056 250.717865,227.006485 
	C248.360657,234.528107 244.943817,235.717728 231.344055,234.835770 
	C231.344055,228.480774 231.344055,222.085480 231.344055,215.050980 
	C234.728470,215.050980 238.306732,215.050980 242.311157,215.094666 
z"/>
<path fill="#FCDC56" opacity="1.000000" stroke="none" 
	d="
M345.173157,215.002960 
	C348.303802,215.012161 350.973297,214.864532 353.614685,215.073090 
	C358.976929,215.496490 362.918030,219.738510 362.969513,224.901428 
	C363.020874,230.051270 359.127747,234.476151 353.804047,234.898880 
	C350.376007,235.171066 346.908813,234.949982 343.005280,234.949982 
	C343.005280,228.710114 342.954803,222.779404 343.079437,216.852386 
	C343.092621,216.226273 344.134583,215.621811 345.173157,215.002960 
z"/>
<path fill="#FCDC56" opacity="1.000000" stroke="none" 
	d="
M305.880737,220.536316 
	C306.482300,225.452560 306.927612,229.994232 307.398407,234.795898 
	C300.297180,234.795898 294.020813,234.795898 287.264343,234.795898 
	C287.264343,230.836090 286.798248,226.700989 287.393555,222.724792 
	C288.006226,218.632431 291.043701,215.992554 295.145233,215.215790 
	C299.723083,214.348816 303.234680,216.292648 305.880737,220.536316 
z"/>
</svg>